<?xml version="1.0" encoding="UTF-8"?>
<svg width="44px" height="44px" viewBox="0 0 44 44" version="1.1" xmlns="http://www.w3.org/2000/svg" xmlns:xlink="http://www.w3.org/1999/xlink">
    <!-- Generator: Sketch 51.3 (57544) - http://www.bohemiancoding.com/sketch -->
    <title>Rectangle 4</title>
    <desc>Created with Sketch.</desc>
    <defs></defs>
    <g id="Page-1" stroke="none" stroke-width="1" fill="none" fill-rule="evenodd">
        <g id="product-2" transform="translate(-197.000000, -1093.000000)">
            <g id="Group-11" transform="translate(197.000000, 1093.000000)">
                <g id="Group-19">
                    <rect id="Rectangle-4" fill="#D8D8D8" opacity="0" x="0" y="4" width="40" height="40"></rect>
                    <path d="M18,40 C8.03998828,40 0,31.9600117 0,22 C0,12.0399883 8.03998828,4 18,4 C27.9600117,4 36,12.0399883 36,22 C36,31.9600117 27.9600117,40 18,40 Z M18,6.40001172 C9.36,6.40001172 2.40001172,13.36 2.40001172,22 C2.40001172,30.64 9.36,37.5999883 18,37.5999883 C26.64,37.5999883 33.5999883,30.64 33.5999883,22 C33.5999883,13.36 26.64,6.40001172 18,6.40001172 Z M18,32.8 C11.9999883,32.8 7.2,28.0000117 7.2,22 C7.2,15.9999883 11.9999883,11.2 18,11.2 C24.0000117,11.2 28.8,15.9999883 28.8,22 C28.8,28.0000117 24.0000117,32.8 18,32.8 Z M18,13.6000117 C13.32,13.6000117 9.60001172,17.32 9.60001172,22 C9.60001172,26.68 13.32,30.3999883 18,30.3999883 C22.68,30.3999883 26.3999883,26.68 26.3999883,22 C26.3999883,17.32 22.68,13.6000117 18,13.6000117 Z M16.6799988,24.52 C16.4399987,24.52 16.0799977,24.4000001 15.84,24.16 C15.3600012,23.6800012 15.3600012,22.9600012 15.84,22.4799988 L32.1599883,4.95998711 C32.6399871,4.47998828 33.3599871,4.47998828 33.8399895,4.95998711 C34.3199883,5.43998594 34.3199883,6.15998594 33.8399895,6.63998828 L17.5200012,24.16 C17.2800011,24.4000001 16.92,24.52 16.6800023,24.52 L16.6799988,24.52 Z" id="Shape" fill="#3A9E63" fill-rule="nonzero"></path>
                </g>
            </g>
        </g>
    </g>
</svg>