<?xml version="1.0" encoding="UTF-8"?>
<svg width="44px" height="44px" viewBox="0 0 44 44" version="1.1" xmlns="http://www.w3.org/2000/svg" xmlns:xlink="http://www.w3.org/1999/xlink">
    <!-- Generator: Sketch 51.3 (57544) - http://www.bohemiancoding.com/sketch -->
    <title>Rectangle 14</title>
    <desc>Created with Sketch.</desc>
    <defs></defs>
    <g id="Page-1" stroke="none" stroke-width="1" fill="none" fill-rule="evenodd">
        <g id="product-2" transform="translate(-565.000000, -1093.000000)">
            <g id="icon-2" transform="translate(565.000000, 1093.000000)">
                <rect id="Rectangle-14" fill="#D8D8D8" opacity="0" x="0" y="1" width="40" height="40"></rect>
                <path d="M37.2345481,18.6913476 L35.004527,18.6913476 C34.6666451,15.9882921 33.5854237,13.4879688 31.828437,11.3255362 L33.3826914,9.77128174 C33.7205733,9.2982473 33.517844,8.69006175 33.0448096,8.35217843 L31.6257063,6.93307511 C31.2878244,6.59519327 30.5444863,6.32488956 30.206603,6.59519327 L28.6523485,8.14944769 C26.4223275,6.59519327 23.9220042,5.44639218 21.2865371,5.17608995 L21.2865371,2.81091776 C21.2865371,2.20273221 20.6783516,2 20.0025849,2 L17.9752961,2 C17.3671105,2 16.6913439,2.33788185 16.6913439,2.81091776 L16.6913439,5.31124107 C14.2585943,5.64912291 11.6907047,6.73034438 9.66341949,8.35217621 L7.90643285,6.59518957 C7.43339842,6.12215513 6.82521287,6.46003698 6.48732954,6.93307142 L5.13580363,8.35217473 C4.66276919,8.62248028 4.32488587,9.29824361 4.79792178,9.77127805 L6.48733102,11.4606873 C4.93307659,13.4879761 3.98700772,16.0558842 3.51397328,18.5562038 L0.810917763,18.5562038 C0.202732212,18.5562038 0,19.1643894 0,19.8401561 L0,21.8674449 C0,22.4756305 0.337881847,23.1513971 0.810917763,23.1513971 L3.51397328,23.1513971 C3.98700772,25.8544526 4.93307659,28.2196285 6.48733102,30.2469137 L4.59519327,32.1390514 C4.25731142,32.4769333 4.46004068,33.2202714 4.93307511,33.5581548 L6.48732954,34.9772581 C6.82521139,35.3151399 7.56854953,35.5854436 7.90643285,35.3151399 L9.66341949,33.5581533 C11.6907084,35.1124077 14.2586165,36.2612088 16.8940835,36.531511 L16.8940835,39.0318343 C16.8940835,39.6400199 17.502269,39.8427521 18.1780357,39.8427521 L20.2053245,39.8427521 C20.8135101,39.8427521 21.4892767,39.5048702 21.4892767,39.0318343 L21.4892767,36.6666621 C22.7732289,36.5315095 24.1923323,36.1936277 25.4086997,35.7205933 C26.0168852,35.3827114 26.3547685,34.7745244 26.0168852,34.1663388 C25.6790034,33.5581533 25.0708163,33.2202699 24.4626308,33.5581533 C22.9083764,34.1663388 21.1513897,34.5042221 19.3943994,34.5042221 C12.028588,34.4366459 6.01428771,28.4899219 6.01428771,21.0565183 C5.87913512,13.4879673 11.8258484,7.54125919 19.259252,7.54125919 C26.6926556,7.54125919 32.6393637,13.4879673 32.6393637,20.9213709 C32.6393637,22.6783575 32.3014818,24.367763 31.5581437,26.1247497 C31.2202618,26.7329352 31.5581437,27.543853 32.1663292,27.6790041 C32.7745148,27.8141567 33.5854325,27.6790041 33.7205836,27.0708186 C34.1936181,25.7868664 34.6666525,24.5704953 34.8018036,23.1513956 L37.0318247,23.1513956 C37.6400103,23.1513956 37.8427425,22.5432101 37.8427425,21.8674434 L37.8427425,19.8401546 C37.9778951,19.3671201 37.7075899,18.6913572 37.2345569,18.6913572" id="Shape" fill="#6462E5" fill-rule="nonzero"></path>
                <path d="M33.0974653,31.5834646 L25.5289142,24.0825058 L25.3937617,24.0825058 C26.0019472,23.0012858 26.3398305,21.7173336 26.3398305,20.5009588 C26.3398305,16.4463885 23.0285895,13 19.1091665,13 L17.6900632,13 C17.0818777,13 16.406111,13.4730344 16.406111,14.2839522 C16.406111,14.8921378 16.8791455,15.5679044 17.6900632,15.5679044 L19.1091665,15.5679044 C21.6094898,15.5679044 23.9746583,17.9330766 23.9746583,20.703691 C23.9746583,23.3391691 21.7446373,25.7043302 19.1091665,25.7043302 C17.8252143,25.7043302 16.4736884,25.0961447 15.324891,24.1500758 C14.2436711,23.2040069 13.5679044,21.9876321 13.5679044,20.7036836 C13.5679044,20.0954981 13.09487,19.4197314 12.2839522,19.4197314 C11.6757667,19.4197314 11,19.8927659 11,20.7036836 C11,24.6231066 14.7842755,28.2046425 18.8388458,28.2046425 C19.9200658,28.2046425 21.0688669,27.8667606 21.9473584,27.3937247 C21.9473584,27.3937247 21.9473584,27.5288773 22.082511,27.5288773 L29.7862094,34.9622809 C29.921362,35.0974335 30.2592438,35.3001627 30.394395,35.4353153 C31.2053127,35.7731972 32.2865327,35.7731972 32.8947183,34.9622809 C33.5029038,34.3540953 33.705636,33.2728716 33.3677527,32.4619576 C33.3677527,31.9889231 33.2326001,31.853772 33.0974471,31.5834661" id="Shape" fill="#6462E5" fill-rule="nonzero"></path>
            </g>
        </g>
    </g>
</svg>