<?xml version="1.0" encoding="UTF-8"?>
<svg width="44px" height="44px" viewBox="0 0 44 44" version="1.1" xmlns="http://www.w3.org/2000/svg" xmlns:xlink="http://www.w3.org/1999/xlink">
    <!-- Generator: Sketch 51.3 (57544) - http://www.bohemiancoding.com/sketch -->
    <title>Rectangle 16</title>
    <desc>Created with Sketch.</desc>
    <defs></defs>
    <g id="Page-1" stroke="none" stroke-width="1" fill="none" fill-rule="evenodd">
        <g id="product-2" transform="translate(-933.000000, -1093.000000)">
            <g id="Group-13" transform="translate(933.000000, 1092.000000)">
                <rect id="Rectangle-16" fill="#D8D8D8" opacity="0" x="0" y="5" width="40" height="40"></rect>
                <path d="M18.5,39 C8.83507813,39 1,31.1649219 1,21.5 C1,11.8350781 8.83507812,4 18.5,4 C28.1649219,4 36,11.8350781 36,21.5 C36,31.1649219 28.1649219,39 18.5,39 Z M19.108125,16.4014844 L19.108125,15.1141406 C19.50248,14.8876421 19.7449747,14.466955 19.7433204,14.0121875 C19.7433204,13.3149218 19.1882422,12.75 18.5035547,12.75 C17.8185938,12.75 17.2635157,13.3149218 17.2635157,14.011914 C17.2635157,14.4822265 17.5161719,14.8923828 17.8907813,15.1094922 L17.8907813,16.4014843 L13.4796876,16.4014843 C11.4207032,16.4036718 9.75218756,18.1019922 9.75000006,20.1976172 L9.75000006,25.356289 C9.75000006,27.4535547 11.419336,29.1540625 13.4796876,29.15625 L23.5203126,29.15625 C25.5806641,29.1540625 27.2500001,27.4532812 27.2500001,25.356289 L27.2500001,20.1976172 C27.2478126,18.1019922 25.5792969,16.4036718 23.5203126,16.4014843 L19.1081251,16.4014843 Z M15.2004297,21.3140625 C15.9944922,21.3151562 16.6378906,21.9703125 16.6389844,22.7783203 C16.6389844,23.5871484 15.9947656,24.2425781 15.2004297,24.2425781 C14.4058203,24.2425781 13.7616016,23.5871484 13.7616016,22.7783203 C13.7616016,21.9697656 14.4058203,21.3140625 15.2004297,21.3140625 Z M21.7919141,21.3140625 C22.5859766,21.3151562 23.229375,21.9703125 23.2304687,22.7783203 C23.2304687,23.3705859 22.8799219,23.9046094 22.3423437,24.1310156 C21.8041947,24.3575726 21.1822235,24.2317466 20.774453,23.8138282 C20.3623178,23.3912921 20.2399033,22.7646178 20.4627343,22.218047 C20.6853124,21.6708985 21.210039,21.3140626 21.7916406,21.3140626 L21.7919141,21.3140625 Z" id="icon-3" stroke="#ECA151" stroke-width="2" fill-rule="nonzero"></path>
            </g>
        </g>
    </g>
</svg>