<?xml version="1.0" encoding="UTF-8"?>
<svg width="44px" height="44px" viewBox="0 0 44 44" version="1.1" xmlns="http://www.w3.org/2000/svg" xmlns:xlink="http://www.w3.org/1999/xlink">
    <!-- Generator: Sketch 51.3 (57544) - http://www.bohemiancoding.com/sketch -->
    <title>Rectangle 9</title>
    <desc>Created with Sketch.</desc>
    <defs></defs>
    <g id="Page-1" stroke="none" stroke-width="1" fill="none" fill-rule="evenodd">
        <g id="product-2" transform="translate(-197.000000, -1303.000000)">
            <g id="Group-14" transform="translate(197.000000, 1303.000000)">
                <g id="Group-18">
                    <g id="拼图">
                        <g id="Group-8" transform="translate(1.000000, 4.000000)" fill="#8280E7">
                            <path d="M29.1875,0 L2.8125,0 C1.2616875,0 0,1.3458 0,3 L0,31.1333333 C0,32.7875333 1.2616875,34.1333333 2.8125,34.1333333 L29.1875,34.1333333 C30.7383125,34.1333333 32,32.7875333 32,31.1333333 L32,3 C32,1.3458 30.7383125,0 29.1875,0 Z M1.875,3 C1.875,2.4486 2.2955625,2 2.8125,2 L15.0625,2 L15.0625,7.06666667 C15.0625,7.81846667 15.804875,8.288 16.41925,7.96113333 L16.6826875,7.82066667 C17.5823125,7.3408 18.778125,7.93666667 18.811625,9.0122 C18.8474375,10.1578667 17.735125,10.8740667 16.8151875,10.3834667 L16.4193125,10.1723333 C15.8073125,9.84586667 15.0625,10.3144667 15.0625,11.0666667 L15.0625,16.0666667 L11.6778125,16.0666667 C11.914875,14.0707333 10.5543125,12.1376667 8.6135625,12.0687333 C6.5065,11.9946 4.97425,13.9902667 5.27975,16.0666667 L1.875,16.0666667 L1.875,3 Z M15.0625,32.1333333 L2.8125,32.1333333 C2.2955625,32.1333333 1.875,31.6847333 1.875,31.1333333 L1.875,18.0666667 L6.625,18.0666667 C7.3203125,18.0666667 7.7750625,17.2842667 7.4635625,16.6194667 L7.2655625,16.1971333 C6.8051875,15.2147333 7.4785,14.0298 8.551125,14.0676 C9.56075,14.1034 10.1174375,15.3798 9.6681875,16.3384667 L9.5365,16.6194667 C9.224375,17.2852 9.6810625,18.0666667 10.375,18.0666667 L15.0625,18.0666667 L15.0625,21.6317333 C13.1143125,21.3052 11.24425,22.9430667 11.3144375,25.1878 C11.379125,27.2589333 13.19225,28.7090667 15.0625,28.4563333 L15.0625,32.1333333 Z M30.125,31.1333333 C30.125,31.6847333 29.7044375,32.1333333 29.1875,32.1333333 L16.9375,32.1333333 L16.9375,27.0666667 C16.9375,26.3224 16.201375,25.8410667 15.58075,26.1722 L15.3173125,26.3126667 C14.4175625,26.7924 13.2219375,26.1967333 13.188375,25.1211333 C13.152625,23.9740667 14.2659375,23.2598 15.184875,23.7499333 L15.58075,23.9610667 C16.20375,24.2934 16.9375,23.8084667 16.9375,23.0666667 L16.9375,18.06 L20.2809375,18.06 C20.1596875,18.8834667 20.3210625,19.739 20.76025,20.4694667 C21.36525,21.4758 22.38325,22.0666667 23.5005625,22.0666667 C23.5380625,22.0666667 23.5758125,22.066 23.6135625,22.0646667 C24.6821875,22.0267333 25.655375,21.4034667 26.2168125,20.3973333 C26.617,19.6802 26.7706875,18.8617333 26.6763125,18.0667333 L30.125,18.0667333 L30.125,31.1333333 Z M30.125,16.0666667 L25.375,16.0666667 C24.6690625,16.0666667 24.230875,16.8618667 24.5365,17.5138667 L24.6681875,17.7948667 C24.8986875,18.2868 24.8748125,18.892 24.605625,19.3742667 C24.4665,19.6234667 24.144625,20.0446667 23.551125,20.0657333 C23.049,20.0836667 22.6075,19.8372 22.338625,19.3898667 C22.0731875,18.9483333 22.045875,18.4049333 22.265625,17.9362 L22.4635625,17.5139333 C22.7755,16.8484667 22.3153125,16.0666667 21.625,16.0666667 L16.9375,16.0666667 L16.9375,12.5003333 C17.1028125,12.528 17.2691875,12.5430667 17.435375,12.5430667 C19.188875,12.543 20.749875,11.0014667 20.6855625,8.94546667 C20.6213125,6.88826667 18.823625,5.42386667 16.9375,5.67866667 L16.9375,2 L29.1875,2 C29.7044375,2 30.125,2.4486 30.125,3 L30.125,16.0666667 Z" id="Shape" fill-rule="nonzero"></path>
                            <rect id="Rectangle-6" x="2.13333333" y="0" width="27.7333333" height="2.13333333"></rect>
                            <rect id="Rectangle-6-Copy" x="2.13333333" y="32" width="27.7333333" height="2.13333333"></rect>
                            <rect id="Rectangle-6-Copy-2" transform="translate(1.066667, 17.066667) rotate(-90.000000) translate(-1.066667, -17.066667) " x="-12.8" y="16" width="27.7333333" height="2.13333333"></rect>
                            <rect id="Rectangle-6-Copy-3" transform="translate(30.933333, 17.066667) rotate(-90.000000) translate(-30.933333, -17.066667) " x="17.0666667" y="16" width="27.7333333" height="2.13333333"></rect>
                            <rect id="Rectangle-6-Copy-4" transform="translate(17.066667, 16.533333) rotate(-90.000000) translate(-17.066667, -16.533333) " x="10.1333333" y="15.4666667" width="13.8666667" height="2.13333333" rx="1"></rect>
                        </g>
                        <rect id="Rectangle-9" fill="#D8D8D8" opacity="0" x="0" y="3" width="40" height="40"></rect>
                    </g>
                </g>
            </g>
        </g>
    </g>
</svg>