<?xml version="1.0" encoding="UTF-8"?>
<svg width="44px" height="44px" viewBox="0 0 44 44" version="1.1" xmlns="http://www.w3.org/2000/svg" xmlns:xlink="http://www.w3.org/1999/xlink">
    <!-- Generator: Sketch 51.3 (57544) - http://www.bohemiancoding.com/sketch -->
    <title>Rectangle 11</title>
    <desc>Created with Sketch.</desc>
    <defs></defs>
    <g id="Page-1" stroke="none" stroke-width="1" fill="none" fill-rule="evenodd">
        <g id="product-2" transform="translate(-565.000000, -1303.000000)">
            <g id="Group-15" transform="translate(565.000000, 1301.000000)">
                <g id="icon5" transform="translate(0.000000, 2.000000)">
                    <rect id="Rectangle-11" fill="#D8D8D8" opacity="0" x="0" y="3" width="40" height="40"></rect>
                    <path d="M28.9974315,8.90191262 L28.9974315,30.1339679 C28.9974315,32.2703317 27.1340541,34 24.8357148,34 L9.15657948,34 L9.15657929,34 C6.86055183,33.9986792 5,32.2681861 5,30.1339679 L5,8.86603213 C5,6.72966825 6.86080518,5 9.15914799,5 L24.8382833,5 C27.1366226,5 29,6.72966498 29,8.86603213 L29,8.9019172 L28.9974315,8.90191262 Z M29.4003641,36.3899452 L29.4003641,36.9975213 L34.200182,36.9975213 C36.8510267,36.9975213 39,34.968215 39,32.4650142 L39,14.3349194 C39,11.8317053 36.8510126,9.80241227 34.200182,9.80241227 L31.7989782,9.80241227 L31.7989782,7.53250709 C31.7989782,5.02929298 29.6499908,3 26.9991602,3 L7.79981797,3 C5.14897334,3.00243031 3,5.03173515 3,7.53496588 L3,32.4674929 C3,34.970707 5.14898742,37 7.79981797,37 L26.9991602,37 C27.8741978,37 28.6926134,36.7788421 29.4003641,36.3924239 L29.4003641,36.3899452 Z M36,31.0141504 C36,33.2167253 34.2899723,35 32.1778597,35 L31,35 C31.3736998,34.3241837 31.5912953,33.5398381 31.5912953,32.7012345 L31.5912953,12 L32.1778597,12 C34.289969,12 36,13.7857364 36,15.9858496 L36,31.0141471 L36,31.0141504 Z M10,27.4995802 C10,28.0501399 10.5204643,27.9987266 11.1660423,27.9987266 L22.8339577,27.9987266 C23.4770315,27.9987266 24,28.0501408 24,27.4995802 C24,26.9468765 23.4770315,26 22.8339577,26 L11.1660423,26 C10.5204643,26 10,26.9468765 10,27.4995802 Z M10,20.4994767 C10,21.0521422 10.5204643,20.9985886 11.1660423,20.9985886 L22.8339577,20.9985886 C23.4770315,20.9985886 24,21.0521413 24,20.4994767 C24,19.948955 23.4770315,19 22.8339577,19 L11.1660423,19 C10.5204643,19 10,19.948955 10,20.4994767 Z M10,13.4995802 C10,14.0501399 10.5204643,13.9987266 11.1660423,13.9987266 L22.8339577,13.9987266 C23.4770315,13.9987266 24,14.0501408 24,13.4995802 C24,12.9468765 23.4770315,12 22.8339577,12 L11.1660423,12 C10.5204643,12 10,12.9468765 10,13.4995802 Z" id="Shape" fill="#EEBC60" fill-rule="nonzero"></path>
                </g>
            </g>
        </g>
    </g>
</svg>