<?xml version="1.0" encoding="UTF-8"?>
<svg width="44px" height="44px" viewBox="0 0 44 44" version="1.1" xmlns="http://www.w3.org/2000/svg" xmlns:xlink="http://www.w3.org/1999/xlink">
    <!-- Generator: Sketch 51.3 (57544) - http://www.bohemiancoding.com/sketch -->
    <title>Rectangle 18</title>
    <desc>Created with Sketch.</desc>
    <defs></defs>
    <g id="Page-1" stroke="none" stroke-width="1" fill="none" fill-rule="evenodd">
        <g id="product-2" transform="translate(-933.000000, -1303.000000)">
            <g id="Group-16" transform="translate(933.000000, 1302.000000)">
                <rect id="Rectangle-18" fill="#D8D8D8" opacity="0" x="0" y="4" width="40" height="40"></rect>
                <g id="数据" transform="translate(3.000000, 2.000000)" fill="#6AD0D0" fill-rule="nonzero">
                    <path d="M2.64317717,31.1372 L2.64317717,0.2448 C2.64317717,0.109600771 2.53136065,8.59636875e-12 2.39342815,8.59636875e-12 C2.39342815,8.59636875e-12 2.39342815,8.59636875e-12 2.39342815,8.59636875e-12 L0.247436532,8.59636875e-12 C0.110407713,0.00124369521 -5.78122742e-06,0.110480875 0,0.2448 L0,33.5104 C0,33.7801333 0.221999133,34 0.494873067,34 L36.7525635,34 C36.8895923,33.9987563 37.0000058,33.8895191 37,33.7552 L37,31.6290667 L37,31.6290562 C37,31.494737 36.8895814,31.3855046 36.7525526,31.3842664 L2.89074741,31.3842664 C2.75282069,31.3830204 2.64203937,31.2724142 2.64331051,31.1372207 C2.64331058,31.1372137 2.64331065,31.1372067 2.64331071,31.1371997 L2.64317717,31.1372 Z M12.7187003,18.3328 L5.77891492,18.3328 C5.50485765,18.3352874 5.28403102,18.5537617 5.28404186,18.8224 L5.28404186,28.2970667 C5.28404186,28.5668 5.50835348,28.7866667 5.77891493,28.7866667 L12.7163878,28.7866667 C12.9904451,28.7841793 13.2112717,28.5657046 13.2112609,28.2970667 L13.2112609,18.8224 L13.2112609,18.8223987 C13.2150945,18.555782 12.9976973,18.3365989 12.725692,18.3328412 C12.7241324,18.3328196 12.7225727,18.3328053 12.7210129,18.3327983 L12.7187003,18.3328 Z M10.3229597,26.1709333 L8.17696806,26.1709333 C8.03993924,26.1696896 7.92952574,26.0604525 7.92953152,25.9261333 L7.92953152,21.1933333 C7.92953152,21.0573333 8.04053109,20.9462667 8.17696806,20.9462667 L10.3229597,20.9462667 C10.4593966,20.9462667 10.5703962,21.0596 10.5703962,21.1933333 L10.5703962,25.9238667 C10.5703962,26.0598667 10.4593966,26.1686667 10.3229597,26.1686667 L10.3229597,26.1709333 Z M23.286784,5.23373333 L16.3493111,5.23373333 C16.0752539,5.23622072 15.8544272,5.45469508 15.8544381,5.72333333 L15.8544381,28.2970667 C15.8544381,28.5668 16.0787497,28.7866667 16.3516236,28.7866667 L23.286784,28.7866667 C23.5608413,28.7841793 23.781668,28.5657046 23.7816571,28.2970667 L23.7816571,5.72333333 L23.7816571,5.72333114 C23.7842102,5.45544797 23.5647274,5.23625635 23.2914271,5.23375593 C23.2898783,5.23374175 23.2883294,5.23373469 23.2867805,5.23373477 L23.286784,5.23373333 Z M20.8910434,26.1709333 L18.7450518,26.1709333 C18.6089288,26.1684621 18.4999042,26.0595819 18.4999277,25.9261333 L18.4999277,8.092 C18.4999277,7.956 18.6109273,7.8472 18.7473643,7.8472 L20.8933559,7.8472 C21.0321053,7.8472 21.1431049,7.95826667 21.1431049,8.092 L21.1431049,25.9238667 C21.1431049,26.0598667 21.0297928,26.1686667 20.8933559,26.1686667 L20.8910434,26.1709333 Z M33.8594927,13.0922667 L26.9220198,13.0922667 C26.6488677,13.0959856 26.4294339,13.3141014 26.4294592,13.5818667 L26.4294592,28.2970667 C26.4294592,28.5668 26.6514584,28.7866667 26.9243323,28.7866667 L33.8618052,28.7866667 C34.1349574,28.7829477 34.3543911,28.5648319 34.3543658,28.2970667 L34.3543658,13.5818667 L34.3543658,13.5818457 C34.3543658,13.3132074 34.1335287,13.0947426 33.8594711,13.0922669 L33.8594927,13.0922667 Z M31.4660646,26.1709333 L29.3177605,26.1709333 C29.1807317,26.1696896 29.0703182,26.0604525 29.0703239,25.9261333 L29.0703239,15.9528 C29.0703239,15.8168 29.1813235,15.708 29.3177605,15.708 L31.4660646,15.708 C31.6025015,15.708 31.7135011,15.8190667 31.7135011,15.9528 L31.7135011,25.9261333 C31.7135011,26.0621333 31.6025015,26.1709333 31.4660646,26.1709333 Z" id="icon6"></path>
                </g>
            </g>
        </g>
    </g>
</svg>