<?xml version="1.0" encoding="UTF-8"?>
<svg width="25px" height="25px" viewBox="0 0 25 25" version="1.1" xmlns="http://www.w3.org/2000/svg" xmlns:xlink="http://www.w3.org/1999/xlink">
    <!-- Generator: Sketch 51.3 (57544) - http://www.bohemiancoding.com/sketch -->
    <title>Rectangle 2</title>
    <desc>Created with Sketch.</desc>
    <defs></defs>
    <g id="Page-1" stroke="none" stroke-width="1" fill="none" fill-rule="evenodd">
        <g id="doenload" transform="translate(-387.000000, -326.000000)">
            <g id="Group" transform="translate(362.000000, 318.000000)">
                <rect id="Rectangle" stroke="#979797" x="0.5" y="0.5" width="179" height="39" rx="4"></rect>
                <rect id="Rectangle-2" fill="#D8D8D8" opacity="0" x="25" y="8" width="25" height="25"></rect>
                <path d="M36.5951995,21.7649301 L35.2182053,21.7649301 C34.8316061,21.7649593 34.5182279,22.0990984 34.5182541,22.5112508 C34.5182672,22.7091678 34.5920258,22.8989751 34.7233042,23.0389164 L37.7003031,26.2126866 C37.7254031,26.2394456 37.7520032,26.2638593 37.7798031,26.2857143 L31.4070029,26.2857143 C29.4646045,26.2857143 28,24.525057 28,22.1893443 C28,20.2119461 29.0389006,18.6302787 30.5668986,18.2074692 C30.9518988,16.0901995 32.6004929,14.5385962 34.5401039,14.5385962 L34.5401037,14.5385962 C35.1131122,14.5388205 35.6788317,14.6755569 36.1959069,14.9388094 C37.1714074,13.1130154 38.8979048,12 40.808308,12 C43.7854116,12 46.2087051,14.7473335 46.2087051,18.1262235 C46.2087051,18.2986118 46.2023051,18.471 46.1900052,18.6396565 C47.2990058,19.3669481 48,20.7191891 48,22.1893332 C48,24.448609 46.3806935,26.2857031 44.3894977,26.2857031 L38.6106945,26.2857031 C38.6384945,26.2638481 38.6649944,26.2394345 38.6901944,26.2126754 L41.6671933,23.0389053 C41.9405743,22.7474838 41.9405966,22.274973 41.6672438,21.9835223 C41.5359539,21.8435405 41.3578752,21.7649036 41.1721936,21.7649189 L39.6951967,21.7649189 L39.6951967,18.7798484 C39.6951967,18.3676961 39.3817963,18.0335808 38.995197,18.0335808 L37.2952026,18.0335808 C36.9086034,18.0335808 36.595203,18.3676961 36.595203,18.7798484 L36.595203,21.7649189 L36.5951995,21.7649301 Z" id="Shape" fill="#333333" fill-rule="nonzero"></path>
            </g>
        </g>
    </g>
</svg>