<?xml version="1.0" encoding="UTF-8"?>
<svg width="25px" height="25px" viewBox="0 0 25 25" version="1.1" xmlns="http://www.w3.org/2000/svg" xmlns:xlink="http://www.w3.org/1999/xlink">
    <!-- Generator: Sketch 51.3 (57544) - http://www.bohemiancoding.com/sketch -->
    <title>Rectangle 2</title>
    <desc>Created with Sketch.</desc>
    <defs></defs>
    <g id="Page-1" stroke="none" stroke-width="1" fill="none" fill-rule="evenodd">
        <g id="doenload" transform="translate(-387.000000, -326.000000)">
            <g id="Group" transform="translate(362.000000, 318.000000)">
                <rect id="Rectangle" stroke="#979797" x="0.5" y="0.5" width="179" height="39" rx="4"></rect>
                <rect id="Rectangle-2" fill="#D8D8D8" opacity="0" x="25" y="8" width="25" height="25"></rect>
                <path d="M35.2910404,20.001931 C34.2175121,19.4681379 33.1671534,19.2 32.1863037,19.2 C32.0472857,19.2 31.9211397,19.2 31.7821216,19.209931 C30.7085932,19.3092414 29.6479369,19.5326897 28.6310455,19.8777931 C28.4353905,19.9448276 28.2397354,20.0217931 28.0312083,20.1012414 L26,26.8791724 C27.3953294,26.3776552 28.6181735,26.1442759 29.7509133,26.1442759 C31.5735945,26.1442759 32.8891173,26.7997241 33.9858153,27.48 C34.5058458,25.7892414 35.7518596,21.6926897 36.12,20.4811034 C35.8445383,20.3023448 35.5793742,20.1484138 35.2910404,20.001931 Z M37.1761537,21.96 L35.2,28.8383071 C35.7806353,29.1737122 37.756789,30.24 39.2669392,30.24 C40.4855257,30.24 41.8461561,29.9246191 43.4335582,29.2763362 L45.32,22.6558404 C44.1462694,23.048815 42.9077469,23.2615719 41.6667323,23.2840992 C39.5659788,23.2840992 38.1031766,22.610786 37.1761537,21.96 Z M32.671824,16.9450046 C34.4245075,16.9677172 35.7111896,17.6112405 36.7804042,18.28 L38.88,11.2668577 C38.4398874,11.0170192 37.2774725,10.406303 36.430903,10.1917952 C35.8613456,10.0681378 35.271077,10 34.6782195,10 C33.5183935,10.0227126 32.2291225,10.3179762 30.7663955,10.8832673 L28.76,17.7500396 C30.2356715,17.2175556 31.5016424,16.9450046 32.671824,16.9450046 Z M49,12.4575 C47.8212359,12.94 46.5531339,13.1975 45.2850319,13.2075 C43.7067288,13.2175 42.170613,12.7475 40.8702501,11.84 L38.88,18.81 C40.1580284,19.6625 41.6494752,20.11 43.185591,20.12 C44.4214321,20.12 45.6994605,19.8175 46.9998234,19.235 L46.9998234,19.18 L47.0767533,19.1575 L49,12.4575 Z" id="Shape-Copy" fill="#333333" fill-rule="nonzero"></path>
            </g>
        </g>
    </g>
</svg>