<?xml version="1.0" encoding="UTF-8"?>
<svg width="33px" height="33px" viewBox="0 0 33 33" version="1.1" xmlns="http://www.w3.org/2000/svg" xmlns:xlink="http://www.w3.org/1999/xlink">
    <!-- Generator: Sketch 51.3 (57544) - http://www.bohemiancoding.com/sketch -->
    <title>icon5</title>
    <desc>Created with Sketch.</desc>
    <defs></defs>
    <g id="Page-1" stroke="none" stroke-width="1" fill="none" fill-rule="evenodd">
        <g id="product-2" transform="translate(-575.000000, -1304.000000)" fill="#EEBC60" fill-rule="nonzero">
            <g id="Group-15" transform="translate(575.000000, 1301.000000)">
                <g id="icon5" transform="translate(0.000000, 3.000000)">
                    <path d="M24.2003337,6.05036711 L24.2003337,26.9849591 C24.2003337,29.0913923 22.4922975,30.7968277 20.3855602,30.7968277 L6.01352244,30.7968277 L6.01352227,30.7968277 C3.90890408,30.7955254 2.20345791,29.0892767 2.20345791,26.9849591 L2.20345791,6.01498931 C2.20345791,3.90855611 3.90913631,2.20312068 6.01587683,2.20312068 L20.3879146,2.20312068 C22.4946519,2.20312068 24.2026881,3.90855288 24.2026881,6.01498931 L24.2026881,6.05037162 L24.2003337,6.05036711 Z M24.2003337,32.407888 L24.2003337,32.9975942 L28.6001669,32.9975942 C31.0301078,32.9975942 33,31.0279734 33,28.5983961 L33,11.0015394 C33,8.57194921 31.0300949,6.60234132 28.6001669,6.60234132 L26.3990633,6.60234132 L26.3990633,4.39919806 C26.3990633,1.96960789 24.4291582,0 21.9992302,0 L4.39983314,0 C1.96989223,0.00235883135 0,1.97197824 0,4.40158453 L0,28.6008019 C-4.17179509e-16,31.0303921 1.96990513,33 4.39983314,33 L21.9992302,33 C22.801348,33 23.5515623,32.7853468 24.2003337,32.4102938 L24.2003337,32.407888 Z M30.7989384,26.9849591 C30.7989384,29.0913923 29.09326,30.7968277 26.9865195,30.7968277 L25.8116556,30.7968277 C26.1844049,30.1505106 26.4014469,29.4004014 26.4014469,28.5984026 L26.4014469,8.80076969 L26.9865195,8.80076969 C29.0932568,8.80076969 30.7989384,10.5085593 30.7989384,12.6126383 L30.7989384,26.9849559 L30.7989384,26.9849591 Z M6.60096892,23.6495781 C6.60096892,24.2557961 7.09167525,24.1991852 7.70034179,24.1991852 L18.7011342,24.1991852 C19.3074397,24.1991852 19.800507,24.255797 19.800507,23.6495781 C19.800507,23.0409994 19.3074397,21.9983993 18.7011342,21.9983993 L7.70034179,21.9983993 C7.09167525,21.9983993 6.60096892,23.0409994 6.60096892,23.6495781 Z M6.60096892,17.0495716 C6.60096892,17.6581503 7.09167525,17.5991787 7.70034179,17.5991787 L18.7011342,17.5991787 C19.3074397,17.5991787 19.800507,17.6581493 19.800507,17.0495716 C19.800507,16.4433536 19.3074397,15.3983929 18.7011342,15.3983929 L7.70034179,15.3983929 C7.09167525,15.3983929 6.60096892,16.4433536 6.60096892,17.0495716 Z M6.60096892,10.4519194 C6.60096892,11.0581374 7.09167525,11.0015265 7.70034179,11.0015265 L18.7011342,11.0015265 C19.3074397,11.0015265 19.800507,11.0581384 19.800507,10.4519194 C19.800507,9.84334071 19.3074397,8.80074067 18.7011342,8.80074067 L7.70034179,8.80074067 C7.09167525,8.80074067 6.60096892,9.84334071 6.60096892,10.4519194 Z" id="Shape"></path>
                </g>
            </g>
        </g>
    </g>
</svg>