<?xml version="1.0" encoding="UTF-8"?>
<svg width="56px" height="56px" viewBox="0 0 56 56" version="1.1" xmlns="http://www.w3.org/2000/svg" xmlns:xlink="http://www.w3.org/1999/xlink">
    <!-- Generator: Sketch 51.3 (57544) - http://www.bohemiancoding.com/sketch -->
    <title>Rectangle 11</title>
    <desc>Created with Sketch.</desc>
    <defs></defs>
    <g id="Page-1" stroke="none" stroke-width="1" fill="none" fill-rule="evenodd">
        <g id="product-2" transform="translate(-553.000000, -2081.000000)">
            <g id="文档" transform="translate(553.000000, 2081.000000)">
                <rect id="Rectangle-13" fill="#D8D8D8" opacity="0.5" x="12" y="15" width="40" height="37"></rect>
                <g transform="translate(6.000000, 4.000000)" fill="#040000" id="Group">
                    <g>
                        <path d="M34.9922282,32.1000042 C34.9961345,32.0597911 35.0000407,32.019578 35.0000407,31.9793648 L35.0000407,6.16983696 C35.0000407,5.52642663 34.4375401,5 33.7500393,5 L1.25000145,5 C0.562500655,5 0,5.52642663 0,6.16983696 L0,41.2649457 C0,41.908356 0.562500655,42.4347826 1.25000145,42.4347826 L16.2500189,42.4347826 C16.9375197,42.4347826 17.5000204,41.908356 17.5000204,41.2649457 C17.5000204,40.6215353 16.9375197,40.0951087 16.2500189,40.0951087 L2.50000291,40.0951087 L2.50000291,7.33967391 L32.5000378,7.33967391 L32.5000378,30.736413 L23.7500276,30.736413 C23.0625268,30.736413 22.5000262,31.2628397 22.5000262,31.90625 L22.5000262,41.2649457 C22.5000262,41.4111753 22.5312762,41.5537492 22.5859638,41.6853558 C22.5859638,41.6890115 22.58987,41.6926673 22.58987,41.6999788 C22.5937763,41.710946 22.5976825,41.7182575 22.6015888,41.7292247 C22.6601826,41.8571756 22.742214,41.977815 22.8515891,42.0838315 C23.0625268,42.288553 23.3398709,42.4055367 23.6211212,42.4311269 C23.6406525,42.4347826 23.6601838,42.4347826 23.6797151,42.4347826 L23.816434,42.4347826 C23.8359652,42.4347826 23.8554965,42.4311269 23.8711215,42.4311269 L23.8750278,42.4311269 C24.1445593,42.4055367 24.4023721,42.2995202 24.6133099,42.1130774 L34.6172278,33.0724312 C34.9101969,32.8128736 35.035197,32.4509553 34.9922282,32.1000042 Z M31.0195673,33.0797427 L25.0000291,38.5194845 L25.0000291,33.0797427 L31.0195673,33.0797427 Z" id="Shape" fill-rule="nonzero"></path>
                        <path d="M33.2504938,37.4319417 L30.6904908,37.4319417 C29.97549,37.4319417 29.3979893,36.8126215 29.3979893,36.0484144 C29.3979893,35.2842073 29.97549,34.6648871 30.6904908,34.6648871 L37.4100377,34.6648871 L37.4100377,2.77557734 L7.59000301,2.77557734 L7.59000301,4.08808167 C7.59000301,4.85512966 7.01000234,5.47444988 6.29500151,5.47444988 C5.58000067,5.47444988 5,4.85228874 5,4.08808167 L5,1.38352729 C5,0.619320225 5.58000067,0 6.29500151,0 L38.7050392,0 C39.4200401,0 40.0000407,0.619320225 40.0000407,1.38352729 L40.0000407,36.0427326 C40.0000407,36.8126215 39.4200401,37.4347826 38.7050392,37.4347826 L33.2504938,37.4319417 Z" id="Path"></path>
                        <path d="M10.0227273,16.3641904 L24.3409091,16.3641904 C24.9034091,16.3641904 25.3636364,15.8322475 25.3636364,15.1820952 C25.3636364,14.5319428 24.9034091,14 24.3409091,14 L10.0227273,14 C9.46022727,14 9,14.5319428 9,15.1820952 C9,15.8322475 9.46022727,16.3641904 10.0227273,16.3641904 Z M10.0227273,23.4567615 L24.3409091,23.4567615 C24.9034091,23.4567615 25.3636364,22.9248187 25.3636364,22.2746663 C25.3636364,21.624514 24.9034091,21.0925711 24.3409091,21.0925711 L10.0227273,21.0925711 C9.46022727,21.0925711 9,21.624514 9,22.2746663 C9,22.9248187 9.46022727,23.4567615 10.0227273,23.4567615 Z M19.6363636,28.1851423 L10.1818182,28.1851423 C9.53181818,28.1851423 9,28.7170851 9,29.3672375 C9,30.0173898 9.53181818,30.5493327 10.1818182,30.5493327 L19.6363636,30.5493327 C20.2863636,30.5493327 20.8181818,30.0173898 20.8181818,29.3672375 C20.8181818,28.7170851 20.2863636,28.1851423 19.6363636,28.1851423 Z" id="Shape" fill-rule="nonzero"></path>
                    </g>
                </g>
                <rect id="Rectangle-11" fill="#D8D8D8" opacity="0" x="0" y="0" width="56" height="56"></rect>
            </g>
        </g>
    </g>
</svg>