<?xml version="1.0" encoding="UTF-8"?>
<svg width="1440px" height="337px" viewBox="0 0 1440 337" version="1.1" xmlns="http://www.w3.org/2000/svg" xmlns:xlink="http://www.w3.org/1999/xlink">
    <!-- Generator: Sketch 51.3 (57544) - http://www.bohemiancoding.com/sketch -->
    <title>banner</title>
    <desc>Created with Sketch.</desc>
    <defs>
        <rect id="path-1" x="0" y="0" width="1450" height="337"></rect>
    </defs>
    <g id="Page-1" stroke="none" stroke-width="1" fill="none" fill-rule="evenodd">
        <g id="product-2" transform="translate(0.000000, -66.000000)">
            <g id="banner" transform="translate(-10.000000, 66.000000)">
                <mask id="mask-2" fill="white">
                    <use xlink:href="#path-1"></use>
                </mask>
                <use id="Mask" fill="#3F4143" xlink:href="#path-1"></use>
                <g id="Group" mask="url(#mask-2)">
                    <g transform="translate(1163.000000, -8.000000)">
                        <circle id="Oval-4" stroke="none" fill="#383838" fill-rule="evenodd" cx="213" cy="213" r="96"></circle>
                        <circle id="Oval-6" stroke="none" fill="#3F4143" fill-rule="evenodd" cx="238.5" cy="165.5" r="23.5"></circle>
                        <circle id="Oval-6-Copy-3" stroke="none" fill="#3F4143" fill-rule="evenodd" cx="163" cy="192" r="7"></circle>
                        <circle id="Oval-6-Copy-4" stroke="none" fill="#3F4143" fill-rule="evenodd" cx="159.5" cy="281.5" r="4.5"></circle>
                        <circle id="Oval-6-Copy" stroke="none" fill="#3F4143" fill-rule="evenodd" cx="207" cy="249" r="14"></circle>
                        <circle id="Oval-6-Copy-2" stroke="none" fill="#3F4143" fill-rule="evenodd" cx="295" cy="240" r="14"></circle>
                        <circle id="Oval-4-Copy" stroke="#383838" stroke-width="1" fill="none" cx="214" cy="214" r="115.5"></circle>
                        <circle id="Oval-4-Copy-2" stroke="#383838" stroke-width="1" fill="none" cx="214" cy="214" r="136.5"></circle>
                        <circle id="Oval-4-Copy-3" stroke="#383838" stroke-width="1" fill="none" cx="214" cy="214" r="160.5"></circle>
                        <circle id="Oval-4-Copy-4" stroke="#383838" stroke-width="1" fill="none" cx="215" cy="215" r="185.5"></circle>
                        <circle id="Oval-4-Copy-5" stroke="#383838" stroke-width="1" fill="none" cx="215" cy="215" r="214.5"></circle>
                        <circle id="Oval-5" stroke="none" fill="#383838" fill-rule="evenodd" cx="8" cy="154" r="8"></circle>
                        <circle id="Oval-5-Copy-2" stroke="none" fill="#383838" fill-rule="evenodd" cx="230.5" cy="56.5" r="10.5"></circle>
                        <circle id="Oval-5-Copy-3" stroke="none" fill="#383838" fill-rule="evenodd" cx="112" cy="61" r="6"></circle>
                        <circle id="Oval-5-Copy" stroke="none" fill="#383838" fill-rule="evenodd" cx="100.5" cy="287.5" r="6.5"></circle>
                    </g>
                </g>
                <g id="Group-Copy" mask="url(#mask-2)">
                    <g transform="translate(-203.000000, 20.000000)">
                        <circle id="Oval-4" stroke="none" fill="#383838" fill-rule="evenodd" cx="255" cy="255" r="115"></circle>
                        <circle id="Oval-6" stroke="none" fill="#3F4143" fill-rule="evenodd" cx="285" cy="198" r="28"></circle>
                        <circle id="Oval-6-Copy" stroke="none" fill="#3F4143" fill-rule="evenodd" cx="247.5" cy="297.5" r="16.5"></circle>
                        <circle id="Oval-6-Copy-2" stroke="none" fill="#3F4143" fill-rule="evenodd" cx="352.5" cy="286.5" r="16.5"></circle>
                        <circle id="Oval-4-Copy" stroke="#383838" stroke-width="1" fill="none" cx="255.5" cy="255.5" r="138"></circle>
                        <circle id="Oval-4-Copy-2" stroke="#383838" stroke-width="1" fill="none" cx="256" cy="256" r="163.5"></circle>
                        <circle id="Oval-4-Copy-3" stroke="#383838" stroke-width="1" fill="none" cx="255.5" cy="255.5" r="192"></circle>
                        <circle id="Oval-4-Copy-4" stroke="#383838" stroke-width="1" fill="none" cx="257.5" cy="257.5" r="222"></circle>
                        <circle id="Oval-4-Copy-5" stroke="#383838" stroke-width="1" fill="none" cx="257" cy="257" r="256.5"></circle>
                        <circle id="Oval-5-Copy-2" stroke="none" fill="#383838" fill-rule="evenodd" cx="275.5" cy="67.5" r="12.5"></circle>
                    </g>
                </g>
                <path d="M387.67706,277 L386.32294,277 C386.765152,275.23984 387,273.397346 387,271.5 C387,259.073593 376.926407,249 364.5,249 C363.309474,249 362.140544,249.092464 361,249.270601 L361,248.729399 C362.140544,248.907536 363.309474,249 364.5,249 C376.081384,249 385.619067,240.249876 386.862678,229 L387.137322,229 C388.36299,240.087561 397.64512,248.746983 409,248.994554 L409,249.005446 C396.804495,249.271345 387,259.240691 387,271.5 C387,273.397346 387.234848,275.23984 387.67706,277 Z" id="Combined-Shape-Copy" fill="#383838" mask="url(#mask-2)"></path>
                <path d="M834.378052,59 L833.621948,59 C833.868741,58.0411402 834,57.0358987 834,56 C834,49.372583 828.627417,44 822,44 C821.318576,44 820.650417,44.0567976 820,44.1659169 L820,42.8340831 C820.650417,42.9432024 821.318576,43 822,43 C827.945993,43 832.881927,38.6754267 833.834083,33 L834.165917,33 C835.118073,38.6754267 840.054007,43 846,43 L846,44 C839.372583,44 834,49.372583 834,56 C834,57.0358987 834.131259,58.0411402 834.378052,59 Z" id="Combined-Shape-Copy-2" fill="#383838" mask="url(#mask-2)"></path>
                <path d="M1055.67706,325 L1054.32294,325 C1054.76515,323.23984 1055,321.397346 1055,319.5 C1055,307.073593 1044.92641,297 1032.5,297 C1031.30947,297 1030.14054,297.092464 1029,297.270601 L1029,296.729399 C1030.14054,296.907536 1031.30947,297 1032.5,297 C1044.08138,297 1053.61907,288.249876 1054.86268,277 L1055.13732,277 C1056.36299,288.087561 1065.64512,296.746983 1077,296.994554 L1077,297.005446 C1064.80449,297.271345 1055,307.240691 1055,319.5 C1055,321.397346 1055.23485,323.23984 1055.67706,325 Z" id="Combined-Shape-Copy-3" fill="#383838" mask="url(#mask-2)"></path>
                <g id="Group-4" mask="url(#mask-2)" stroke="#383838">
                    <g transform="translate(317.000000, 93.000000)">
                        <path d="M15.6082059,22.536031 C12.2783727,35.4427117 7.07563743,44.5644852 0,49.9013516 C5.21826771,52.1936285 17.6712228,57.5598447 37.3588653,66 C50.965677,52.7662485 55.8935446,38.7652102 52.1424679,23.996885 C52.9043343,21.4552559 54.0289533,17.3165232 56.1486131,17.3165232 C58.2682729,17.3165232 71.0081376,19.4542089 83.6982503,9.72934441 C85.7677868,8.40887739 95.1022355,1.15134869 96,0 C93.1979204,0.686179925 71.148483,2.29448412 65.7967967,2.29448412 C62.2290059,2.29448412 54.8085257,2.29448412 43.5353562,2.29448412 C36.6923463,10.4711505 30.1937641,15.4784968 24.0396095,17.3165232 C22.5522462,17.5188679 19.7417783,19.2587038 15.6082059,22.536031 Z" id="Path-2" stroke-width="2" fill="#383838" fill-rule="evenodd"></path>
                        <path d="M54.1637944,72 C57.9329882,72 66.5826201,47.6747998 57.3731703,24.2852797 C56.8242317,23.046807 56.8242317,22.0029869 57.3731703,21.1538195 C63.7411479,23.137459 68.2035173,23.8439454 70.7602786,23.2732788 C74.5954205,22.417279 85.4949053,20.8388313 91.1816927,16.1495408 C94.9728843,13.0233472 98.2456534,9.73692936 101,6.29028741 L98.0445723,0 C89.7346053,8.37800425 82.5727371,13.0231784 76.5589676,13.9355226 C70.5451982,14.8478667 63.7768661,15.5858728 56.2539713,16.1495408 C52.8160301,19.1348357 51.2682843,21.068449 51.6107341,21.950381 C52.1244087,23.2732788 55.3674151,37.3398369 53.4890746,41.8260811 C51.6107341,46.3123253 43.701551,63.5585358 38.8818762,65.2256266 C34.0622015,66.8927173 50.3946006,72 54.1637944,72 Z" id="Path-3" stroke-width="1" fill="none"></path>
                    </g>
                </g>
                <g id="Group-4-Copy" mask="url(#mask-2)" stroke="#383838">
                    <g transform="translate(972.000000, 77.000000) scale(-1, 1) rotate(-330.000000) translate(-972.000000, -77.000000) translate(926.000000, 44.000000)">
                        <path d="M14.2935206,20.6378122 C11.2441606,32.457358 6.47965369,40.810801 0,45.698141 C4.77873096,47.7973385 16.1827687,52.7115562 34.2121133,60.4407939 C46.6728179,48.3217265 51.1856092,35.5000012 47.7504872,21.9756179 C48.4481813,19.6480712 49.4780732,15.8579456 51.4191932,15.8579456 C53.3603133,15.8579456 65.0270941,17.8155732 76.6483136,8.90983789 C78.5435322,7.70059432 87.0917366,1.05437013 87.9138821,0 C85.3478227,0.628382719 65.1556181,2.10121882 60.2547065,2.10121882 C56.9874321,2.10121882 50.1919819,2.10121882 39.868356,2.10121882 C33.6017355,9.58916132 27.6505314,14.1747369 22.0147437,15.8579456 C20.6526616,16.0432467 18.0789206,17.6365356 14.2935206,20.6378122 Z" id="Path-2" stroke-width="2" fill="#383838" fill-rule="evenodd"></path>
                        <path d="M48.7279665,65.9354115 C52.1468062,65.9354115 59.9924374,43.6591326 51.6390244,22.239721 C51.1411109,21.1055653 51.1411109,20.1496666 51.6390244,19.3720249 C57.4150857,21.1885817 61.462669,21.8355605 63.7817741,21.3129614 C67.2604319,20.5290627 77.1467877,19.0835683 82.3049768,14.7892586 C85.7437695,11.9263855 88.7123281,8.91678395 91.2106526,5.76045402 L88.5299379,0 C80.992399,7.67232164 74.4962408,11.926231 69.0414634,12.761728 C63.5866859,13.597225 57.4474839,14.2730685 50.6238572,14.7892586 C47.5054796,17.5231009 46.1015999,19.2938453 46.4122183,20.1014917 C46.8781458,21.3129614 49.8197082,34.1946877 48.1159633,38.3030537 C46.4122183,42.4114198 39.2382096,58.2049752 34.8665333,59.7316463 C30.494857,61.2583173 45.3091269,65.9354115 48.7279665,65.9354115 Z" id="Path-3" stroke-width="1" fill="none"></path>
                    </g>
                </g>
            </g>
        </g>
    </g>
</svg>