<?xml version="1.0" encoding="UTF-8"?>
<svg width="49px" height="48px" viewBox="0 0 49 48" version="1.1" xmlns="http://www.w3.org/2000/svg" xmlns:xlink="http://www.w3.org/1999/xlink">
    <!-- Generator: Sketch 51.3 (57544) - http://www.bohemiancoding.com/sketch -->
    <title>问题</title>
    <desc>Created with Sketch.</desc>
    <defs></defs>
    <g id="Page-1" stroke="none" stroke-width="1" fill="none" fill-rule="evenodd">
        <g id="product-2" transform="translate(-231.000000, -2085.000000)">
            <g id="问题" transform="translate(228.000000, 2081.000000)">
                <rect id="Rectangle-13" fill="#FFFFFF" x="11" y="16" width="39" height="36"></rect>
                <rect id="Rectangle-13" fill="#D8D8D8" opacity="0.5" x="12" y="15" width="40" height="37"></rect>
                <g id="下载" transform="translate(3.000000, 4.000000)" fill="#040000" fill-rule="nonzero">
                    <path d="M41.6079234,35.3713269 L38.8559202,35.3713269 C38.0872943,35.3713269 37.4664811,34.7861 37.4664811,34.0639623 C37.4664811,33.3418245 38.0872943,32.7565976 38.8559202,32.7565976 L40.2157968,32.7565976 L40.2157968,2.62278281 L8.15925949,2.62278281 L8.15925949,3.86303426 C8.15925949,4.58785653 7.53575877,5.1730834 6.76713287,5.1730834 C5.99850698,5.1730834 5.37500625,4.585172 5.37500625,3.86303426 L5.37500625,1.30736462 C5.37500625,0.585226871 5.99850698,0 6.76713287,0 L41.6079234,0 C42.3765493,0 43.00005,0.585226871 43.00005,1.30736462 L43.00005,34.0585932 C43.00005,34.7861 42.3765493,35.3740114 41.6079234,35.3740114 L41.6079234,35.3713269 Z M36.1845421,40.3726006 L1.38943912,40.3726006 C0.623500726,40.3726006 0,39.7873737 0,39.0652359 L0,6.36232883 C0,5.64019109 0.623500726,5.05496422 1.38943912,5.05496422 L36.1791671,5.05496422 C36.9451055,5.05496422 37.5686062,5.64019109 37.5686062,6.36232883 L37.5686062,39.0679205 C37.5739812,39.7927427 36.9504805,40.3752851 36.1845421,40.3752851 L36.1845421,40.3726006 Z M2.78425324,37.7605558 L34.7924155,37.7605558 L34.7924155,7.66700892 L2.78694074,7.66700892 L2.78694074,37.7605558 L2.78425324,37.7605558 Z" id="Shape"></path>
                </g>
                <g id="问好" transform="translate(15.000000, 18.000000)" fill="#000000" fill-rule="nonzero">
                    <path d="M0,5.9375 C0,4.75 0.24,3.8 0.48,3.20625 C0.72,2.6125 1.2,2.01875 1.8,1.54375 C2.4,0.95 3,0.59375 3.84,0.35625 C4.56,0.11875 5.28,0 6.12,0 C7.8,0 9.12,0.475 10.32,1.425 C11.4,2.375 12,3.5625 12,5.10625 C12,5.81875 11.76,6.4125 11.52,7.00625 C11.28,7.6 10.68,8.3125 9.72,9.14375 C8.76,9.975 8.4,10.56875 8.04,10.925 C7.68,11.28125 7.56,11.75625 7.32,12.23125 C7.08,12.70625 7.2,13.0625 7.2,14.25 L4.8,14.25 C4.8,13.0625 4.92,12.46875 5.04,11.875 C5.16,11.28125 5.4,10.80625 5.76,10.33125 C6.12,9.85625 6.48,9.2625 7.32,8.43125 C8.16,7.6 8.76,7.00625 9,6.65 C9.24,6.29375 9.48,5.7 9.48,4.86875 C9.48,4.0375 9.12,3.44375 8.52,2.85 C7.92,2.25625 7.08,1.9 6,1.9 C3.6,1.9 2.4,3.5625 2.4,5.9375 L0,5.9375 Z M7.2,19 L4.8,19 L4.8,16.625 L7.2,16.625 L7.2,19 Z" id="Shape"></path>
                </g>
                <rect id="Rectangle-11" fill="#D8D8D8" opacity="0" x="0" y="0" width="56" height="56"></rect>
            </g>
        </g>
    </g>
</svg>