<?xml version="1.0" encoding="UTF-8"?>
<svg width="16px" height="12px" viewBox="0 0 16 12" version="1.1" xmlns="http://www.w3.org/2000/svg" xmlns:xlink="http://www.w3.org/1999/xlink">
    <!-- Generator: Sketch 51.3 (57544) - http://www.bohemiancoding.com/sketch -->
    <title>邮箱 copy 2</title>
    <desc>Created with Sketch.</desc>
    <defs></defs>
    <g id="Page-1" stroke="none" stroke-width="1" fill="none" fill-rule="evenodd">
        <g id="support-copy" transform="translate(-234.000000, -1685.000000)" fill="#6A9FD9" fill-rule="nonzero">
            <g id="邮箱-copy-2" transform="translate(234.000000, 1685.000000)">
                <path d="M15.9972402,10.0404331 C15.9944804,10.3773802 15.9103943,10.7070025 15.7532343,11 L11,5.34955407 L15.7063582,1 C15.8968242,1.31684658 15.9986578,1.68468009 16,2.06065687 L16,10.0389739 L15.9972402,10.0389739 L15.9972402,10.0404331 Z M8.00884168,6 L15,0.23583815 C14.7053253,0.0804597182 14.3723342,0 14.0349402,0 L1.96505979,0 C1.62765145,0 1.29467474,0.0818551301 1,0.23583815 L8.00884168,6 Z M9.89059838,6 L8.29500132,7.40276349 C8.11190537,7.57611206 7.82562459,7.57611206 7.64251445,7.40276349 L6.0469174,6.00001423 L1,11.6940866 C1.31388283,11.8936665 1.67717971,12 2.04774252,12 L13.9522575,12 C14.3228203,12 14.6861172,11.8936665 15,11.6941008 L9.90950117,6 L9.89062676,6 L9.89059838,6 Z M0.293871161,1 C0.106238783,1.31208505 0.00552414726,1.6725332 0,2.04175252 L0,10.040293 C0.00276207363,10.3772894 0.0869177414,10.7084192 0.244207729,11 L5,5.34871509 L0.293857687,1 L0.293871161,1 Z" id="Shape"></path>
            </g>
        </g>
    </g>
</svg>